<svg xmlns="http://www.w3.org/2000/svg" width="246.681" height="452.576" viewBox="0 0 246.681 452.576"><defs><style>.a{fill:#e6e6e6;}.b{fill:#2f2e41;}.c{fill:#ffb8b8;}.d{fill:#8c59ff;}.e{opacity:0.2;isolation:isolate;}</style></defs><g transform="translate(-1003.258 -295.837)"><path class="a" d="M576.6,469.474c-9.262-2.061-20.533-10.633-18.12-22.415,1.2-5.843,5.79-9.625,10.553-12.072,6.588-3.383,14.091-4.657,21.321-4.98,8.339-.371,16.671.565,24.948,1.556,8.172.978,16.344,1.854,24.553,2.388a382.144,382.144,0,0,0,48.572.059,379.224,379.224,0,0,0,47.257-5.921q11.622-2.21,23.106-5.185a181.407,181.407,0,0,0,21.224-6.535c9.1-3.6,23.9-10.606,22.7-23.581-.64-6.879-5.558-12.374-10.517-16.2-6-4.629-12.937-7.674-19.734-10.631-31.615-13.756-63.292-27.348-94.937-41.021-7.385-3.191-14.821-6.3-21.989-10.036-6.711-3.5-13.391-7.568-18.791-13.191-4.717-4.912-8.932-11.505-8.784-18.876.124-6.112,3.5-11.3,7.635-15.177,10.238-9.6,24.72-13.489,37.808-15.528,16.262-2.532,32.758-2.519,49.031-4.965,13.139-1.974,27.178-5.786,37.864-14.718,4.1-3.425,7.711-7.833,9.23-13.287a21.9,21.9,0,0,0-1.9-15.767c-2.9-5.7-7.512-10.233-12.367-13.95a76.959,76.959,0,0,0-18.757-10.324c-14.432-5.666-29.608-8.617-44.391-12.964-7.25-2.133-14.573-4.471-21.305-8.134-5.7-3.1-11.916-7.286-15.089-13.506-6.547-12.834,9.071-20.483,17.922-23.38a134.776,134.776,0,0,1,18.522-4.368c1.335-.236.769-2.431-.559-2.2a129.371,129.371,0,0,0-19.451,4.679c-5.337,1.827-10.843,4.228-15.035,8.359a15.385,15.385,0,0,0-4.772,13.6c1.11,6.157,5.937,10.9,10.47,14.339,5.994,4.545,12.828,7.513,19.758,9.932,7.3,2.548,14.751,4.534,22.2,6.481,14.888,3.892,30.443,7.361,43.883,15.643,9.4,5.794,22.173,16.657,19.046,30.122-1.388,5.977-5.6,10.651-10.153,14.088a62.54,62.54,0,0,1-18.183,9.109c-29.782,9.874-62.56,2.813-91.574,16.225-9.865,4.56-21.848,12.863-21.945,25.927-.05,6.786,3.252,13.01,7.334,17.93,4.889,5.892,11.22,10.249,17.661,13.891a220.04,220.04,0,0,0,21.09,10.06q11.906,5.152,23.816,10.29l48.186,20.819,23.942,10.344c7.307,3.157,14.8,6.185,21.446,10.82,5.44,3.794,11.867,10.02,11.312,17.75-.441,6.139-5.391,10.569-9.914,13.531-5.857,3.835-12.437,6.316-18.983,8.377-7.551,2.377-15.226,4.35-22.916,6.123a368.661,368.661,0,0,1-48.077,7.753,383.169,383.169,0,0,1-48.841,1.5q-12.356-.409-24.673-1.628c-8.464-.84-16.892-2.134-25.378-2.708a81.046,81.046,0,0,0-22.985,1.27c-6.312,1.394-12.98,3.878-17.771,8.725a17.129,17.129,0,0,0-4.973,13.036,21.129,21.129,0,0,0,5.825,12.917,27.227,27.227,0,0,0,14.09,7.792c1.323.294,1.888-1.9.56-2.2Z" transform="translate(447.156 268.236)"/><path class="b" d="M697.237,232.132H726.2s20.766,31.7,8.744,65.031a172.677,172.677,0,0,0-5.493,20.71c-4.2,19.443-8.372,45.779-12.652,69.98-6.012,33.993-12.229,63.773-18.987,64.314-13.663,1.093-40.229.911-40.229-4.554s17.795-163.566,17.795-163.566l3.826-6.557.723-28.565a17.229,17.229,0,0,1,17.311-16.793Z" transform="translate(422.703 239.903)"/><circle class="c" cx="22.952" cy="22.952" r="22.952" transform="translate(1106.278 317.38)"/><path class="c" d="M714.146,82.109,725.1,113.595l24.017-10.719s-16.394-25.138-16.394-28.417Z" transform="translate(409.073 277.896)"/><path class="d" d="M737.9,215.452a4.6,4.6,0,0,0,4.712-.558,4.825,4.825,0,0,0,1.787-3.044c2.292-13.216,5.083-49.852,6.691-68.378a78.1,78.1,0,0,0-8.143-41.361l-5.938-8.164a4.66,4.66,0,0,0-5.581-1.567s-18.537,19.233-18.606,19.976c-.291,3.189-2.5,10.255-14,21.755-12.583,12.583-12.652,23.564-12.374,26.63q.027.3.028.6a13.455,13.455,0,0,0,.554,4.066c5.27,16.615,1.143,36.507-5.485,57.272a4.684,4.684,0,0,0,1.888,5.082c1.936,1.317-.386-.638.3.209,4.568,5.6,11.141-2.2,18.66-10.715,2.619-2.966,5.588-6.327,9.086-9.825,4.811-4.811,14,6.167,18.276,6.167A19.833,19.833,0,0,1,737.9,215.452Z" transform="translate(416.965 273.665)"/><path class="d" d="M741.758,118.677s10.836,11.367,2.632,23.679-8.352,22.038-8.352,22.038-11.586,89.469-32.3,82.8L691.2,272.749l-16.719-8.18L687.109,242.2s-8.005-1.381-5.051-6.616c2.075-3.678,15.554-44.565,23.394-68.58,3.322-10.176,5.632-17.323,5.632-17.323S721.939,113.767,741.758,118.677Z" transform="translate(418.63 267.352)"/><path class="e" d="M756.209,178.139,744.7,221.434l8.756-46.681Z" transform="translate(401.711 253.729)"/><path class="b" d="M689.026,38.185S685.168,8.155,716.652,18c0,0,22.486-4.126,29.86,24l7.467,29.485-3.64-1.981-1.7,3.709-5.9,1.493L740.224,69.7,739,75.783l-48.3,4.815S712.337,67.8,712.68,44.877l-4.121,4.354Z" transform="translate(415.162 291.978)"/><circle class="b" cx="12.145" cy="12.145" r="12.145" transform="translate(1145.563 298.13)"/><path class="b" d="M742.6,11.463A12.136,12.136,0,0,1,754.742.112c-.251-.032-.5-.071-.755-.087A12.144,12.144,0,1,0,752.4,24.262l.026,0c.256.016.507.01.76.01A12.134,12.134,0,0,1,742.6,11.463Z" transform="translate(402.59 295.838)"/><ellipse class="c" cx="3.795" cy="5.313" rx="3.795" ry="5.313" transform="translate(1123.551 336.841)"/><path class="e" d="M704.239,190.239l-16.832,55.772,20.628-61.379Z" transform="translate(415.516 251.348)"/><path class="c" d="M806.909,477.64l31.7,47-29.51,29.51-3.825-7.651,6.558-15.3s-1.093-14.208-4.919-18.034-20.766-26.777-20.766-26.777Z" transform="translate(391.724 180.744)"/><path class="b" d="M743.569,277.49s6.01,9.512-6.559,50.5c0,0,58.627,98.949,49.337,105.506s-34.431,21.071-40.988,16.7-54.253-152.484-54.253-152.484Z" transform="translate(414.624 228.973)"/><path class="c" d="M676,509.918s-17.487,32.242-17.487,36.068S659.6,560.74,659.6,560.74l-33.335,8.2-11.477-5.464,3.826-9.837s20.766-7.1,25.138-20.766,9.29-27.87,9.29-27.87Z" transform="translate(433.014 174.152)"/><path class="b" d="M651.47,558.637s6.284,10.656,4.645,18.307-4.372,6.557-16.394,7.65-53.009,1.093-53.009-6.558,31.972-17.586,32.107-14.531,1.228,9.067-2.051,10.16-.273.273-.273.273Z" transform="translate(439.78 161.227)"/><path class="e" d="M736.394,416.781l10.77-71.762-8.759,77.47Z" transform="translate(403.712 212.701)"/><path class="b" d="M832.83,528.4l9.563,9.563c4.919,4.919,8.2,12.023-1.093,18.034s-41.532,28.418-52.462,21.313,13.116-13.662,13.116-13.662,3.976-14.742,6.087-11.47,2.11,9.83,2.11,9.83Z" transform="translate(397.083 169.729)"/><path class="c" d="M687.881,316.191s-6.573,38.334-21.081,25.126,9.659-31.571,9.659-31.571Z" transform="translate(421.599 221.201)"/></g></svg>