<svg xmlns="http://www.w3.org/2000/svg" width="241.861" height="272.964" viewBox="0 0 241.861 272.964"><defs><style>.a{fill:#2f2e41;}.b{fill:#8c59ff;}</style></defs><g transform="translate(-1196.722 -294.67)"><path class="a" d="M44.995,312.994v60.977H286.856V312.994Zm94.33,50.746H60.751v-8.594h78.574ZM271.1,347.779H60.751v-8.594H271.1Zm0-15.96H60.751v-8.594H271.1Z" transform="translate(1151.727 98.31)"/><path class="b" d="M119.843,125.22H45.361V104.348H84.239Z" transform="translate(1151.565 190.322)"/><path class="a" d="M44.995,138.756v60.977H286.856V138.756Zm94.33,50.746H60.751v-8.594h78.574Zm45.426-15.96h-124v-8.594h124Zm86.35-15.961H60.751v-8.594H271.1Z" transform="translate(1151.727 175.148)"/><path class="b" d="M119.843,474.426H45.361V453.555H84.239Z" transform="translate(1151.565 36.323)"/><path class="a" d="M44.995,483.57v60.977H286.856V483.57Zm139.756,50.746h-124v-8.594h124Zm0-15.961h-124v-8.594h124ZM271.1,502.4H60.751V493.8H271.1Z" transform="translate(1151.727 23.087)"/></g></svg>