<svg xmlns="http://www.w3.org/2000/svg" xmlns:xlink="http://www.w3.org/1999/xlink" width="499.39" height="322.294" viewBox="0 0 499.39 322.294"><defs><style>.a{fill:#fff;}.b{fill:#e6e6e6;}.c{fill:#8c59ff;}.d{filter:url(#a);}</style><filter id="a" x="0" y="0" width="499.39" height="301.163" filterUnits="userSpaceOnUse"><feOffset dx="5" dy="5" input="SourceAlpha"/><feGaussianBlur stdDeviation="7" result="b"/><feFlood flood-opacity="0.161"/><feComposite operator="in" in2="b"/><feComposite in="SourceGraphic"/></filter></defs><g transform="translate(-114.384 -327.109)"><path class="a" d="M786.186,473.986l-393.539.542a31.925,31.925,0,0,1-31.967-31.884h0V431.813l457.39-.633v10.831a31.925,31.925,0,0,1-31.876,31.976Z" transform="translate(-231.73 174.875)"/><g class="d" transform="matrix(1, 0, 0, 1, 114.38, 327.11)"><path class="a" d="M368.965,121.57H808.434a8.956,8.956,0,0,1,8.956,8.956h0V380.733H360V130.526a8.956,8.956,0,0,1,8.956-8.956Z" transform="translate(-344 -105.57)"/></g><rect class="b" width="413.909" height="209.216" transform="translate(152.979 364.104)"/><rect class="c" width="66.901" height="70.241" transform="translate(461.171 381.25)"/><rect class="c" width="66.901" height="70.241" transform="translate(461.596 473.528)"/><rect class="c" width="184.106" height="8.006" transform="translate(186.212 390.356)"/><rect class="a" width="184.106" height="8.006" transform="translate(186.212 406.361)"/><rect class="c" width="104.058" height="8.006" transform="translate(186.212 422.373)"/><rect class="a" width="152.088" height="8.006" transform="translate(186.212 438.378)"/><rect class="c" width="128.069" height="8.006" transform="translate(186.212 454.391)"/><rect class="a" width="184.106" height="8.006" transform="translate(186.212 470.395)"/><rect class="c" width="160.087" height="64.035" transform="translate(186.219 494.414)"/><path class="a" d="M88.185,94.221l24.7,24.389L88.185,143l-5.557-5.557L101.3,118.763,82.472,99.932Z" transform="translate(192.435 407.833)"/><path class="a" d="M167.725,94.221l-24.7,24.389L167.725,143l5.557-5.557-18.676-18.677,18.832-18.832Z" transform="translate(92.659 407.833)"/></g></svg>